<?xml version="1.0" encoding="iso-8859-1"?>
<!-- Generator: Adobe Illustrator 19.0.0, SVG Export Plug-In . SVG Version: 6.00 Build 0)  -->
<svg xmlns="http://www.w3.org/2000/svg" 
	xmlns:xlink="http://www.w3.org/1999/xlink" version="1.1" id="Layer_1" x="0px" y="0px" viewBox="0 0 505 505" style="enable-background:new 0 0 505 505;" xml:space="preserve" width="512" height="512" fill="rgb(0, 174, 255)" class="homeSvg">
	<g>
		<path d="M90.943,119.7c-2.929-2.929-7.678-2.929-10.606,0c-2.929,2.929-2.929,7.678,0,10.606l6.801,6.801   c1.406,1.407,3.314,2.197,5.303,2.197h320.12c1.989,0,3.897-0.79,5.303-2.197l6.801-6.801c2.929-2.929,2.929-7.677,0-10.606   c-2.929-2.929-7.678-2.929-10.606,0l-4.604,4.604H95.547L90.943,119.7z"/>
		<path d="M504.117,272.841c-1.304-2.443-3.848-3.97-6.617-3.97c-39.513,0-72.924-13.026-99.363-38.716v-65.851h24.778   c1.989,0,3.897-0.79,5.303-2.197l51.9-51.9c2.145-2.145,2.787-5.371,1.626-8.173c-1.161-2.802-3.896-4.63-6.929-4.63   c-69.839,0-124.932-25.636-158.851-47.142c-36.954-23.431-57.566-47.21-57.766-47.443c-1.425-1.665-3.507-2.624-5.699-2.624   c-2.192,0-4.273,0.959-5.699,2.624c-0.408,0.477-41.677,48.053-113.442,75.453c-3.87,1.477-5.809,5.812-4.332,9.682   c1.478,3.87,5.811,5.809,9.682,4.332c60.501-23.099,99.781-59.211,113.798-73.582c8.751,8.946,27.382,26.381,54.947,43.923   c32.792,20.869,84.433,45.421,149.77,49.261l-37.416,37.416H85.191l-37.412-37.412c20.592-1.2,41.026-4.505,60.955-9.869   c4-1.076,6.37-5.192,5.293-9.191s-5.192-6.369-9.191-5.293c-24.324,6.547-49.44,9.866-74.65,9.866c-3.033,0-5.768,1.827-6.929,4.63   c-1.161,2.802-0.519,6.028,1.626,8.173l51.899,51.9c1.406,1.406,3.314,2.197,5.303,2.197h24.778v65.851   c-26.438,25.69-59.849,38.716-99.363,38.716c-2.77,0-5.313,1.526-6.617,3.97c-1.304,2.444-1.154,5.407,0.388,7.707l47.474,70.805   v145.952c0,4.142,3.358,7.5,7.5,7.5h392.512c4.142,0,7.5-3.358,7.5-7.5v-56.666c0-4.142-3.358-7.5-7.5-7.5s-7.5,3.358-7.5,7.5   v49.166h-12.171h-25.6V356.571h37.771v54.066c0,4.142,3.358,7.5,7.5,7.5s7.5-3.358,7.5-7.5v-59.284l47.474-70.805   C505.271,278.247,505.421,275.284,504.117,272.841z M383.137,164.304v61.482h-37.771v-61.482H383.137z M174.633,225.786v-61.482   h16.935v37.856c0,4.142,3.358,7.5,7.5,7.5h28.67c4.142,0,7.5-3.358,7.5-7.5v-37.856h34.52v37.856c0,4.142,3.358,7.5,7.5,7.5h28.67   c4.142,0,7.5-3.358,7.5-7.5v-37.856h16.938v61.482H174.633z M298.428,164.304v30.356h-13.67v-30.356H298.428z M220.238,164.304   v30.356h-13.67v-30.356H220.238z M159.633,164.304v61.482h-37.771v-61.482H159.633z M79.185,489.805H63.744V356.571h37.771v133.234   H79.185z M188.326,489.805v-93.793h128.348v93.793H188.326z M388.485,489.805h-56.811V388.512c0-4.142-3.358-7.5-7.5-7.5H180.826   c-4.142,0-7.5,3.358-7.5,7.5v101.293h-56.812V356.571h271.971V489.805z M444.755,341.571h-48.77H109.015h-48.77l-39.018-58.194   c37.706-2.757,70.013-17.047,96.227-42.591h270.091c26.214,25.544,58.521,39.834,96.227,42.591L444.755,341.571z"/>
		<path d="M57.356,292.37c-2.307-3.441-6.965-4.359-10.406-2.053c-3.44,2.307-4.359,6.966-2.053,10.406l18.455,27.524   c1.393,2.077,3.729,3.323,6.229,3.323h365.837c2.5,0,4.837-1.246,6.229-3.323l18.455-27.524c2.307-3.44,1.388-8.099-2.053-10.406   c-3.439-2.306-8.1-1.387-10.406,2.053l-16.226,24.201H73.582L57.356,292.37z"/>
	</g>















</svg>
