<svg fill="rgb(0, 174, 255)" height="512pt" viewBox="0 0 512.0021 512" width="512pt" 
	xmlns="http://www.w3.org/2000/svg">
	<path d="m499.890625 429.222656c-10.015625-37.457031-44.359375-63.199218-83.121094-62.308594h-.992187l-1.058594-5.140624c-3.777344-12.816407-15.929688-21.3125-29.269531-20.457032h-36.273438c.351563-8.914062.691407-18.109375.691407-28.1875 0-.902344-.050782-1.75-.0625-2.640625 25.699218-10.417969 42.570312-35.3125 42.730468-63.039062v-102.398438h110.929688c3.914062 0 7.324218-2.660156 8.277344-6.457031.957031-3.792969-.792969-7.75-4.242188-9.597656l-231.894531-124.242188c-12.339844-6.355468-26.996094-6.335937-39.316407.058594l-231.785156 124.183594c-3.445312 1.847656-5.195312 5.804687-4.242187 9.597656.949219 3.792969 4.359375 6.453125 8.273437 6.457031h110.929688v102.398438c.160156 27.726562 17.03125 52.621093 42.730468 63.039062-.011718.890625-.0625 1.738281-.0625 2.640625.105469 9.460938 1.066407 18.898438 2.871094 28.1875h-38.453125c-13.332031-.910156-25.492187 7.613282-29.175781 20.457032l-1.0625 5.140624h-1.082031c-38.757813-.894531-73.097657 24.84375-83.121094 62.292969l-7.933594 32.164063c-2.785156 11.28125-4.1874998 22.863281-4.175781 34.484375v7.59375c0 4.710937 3.820312 8.53125 8.535156 8.53125h494.929688c4.714844 0 8.535156-3.820313 8.535156-8.53125v-7.59375c.007812-11.617188-1.394531-23.191407-4.175781-34.46875zm-209.632813-7.074218c3.328126 19.050781 1.457032 38.648437-5.414062 56.722656-6.777344-10.511719-14.15625-20.625-22.09375-30.292969-23.476562-30.355469-23.816406-85.253906-23.816406-85.804687-.003906-4.46875-3.457032-8.179688-7.917969-8.503907-.207031-.015625-.414063-.019531-.625-.019531-4.226563 0-7.816406 3.101562-8.433594 7.285156-3.257812 21.101563-13.136719 40.621094-28.210937 55.742188.992187-18.644532-1.289063-37.320313-6.742188-55.179688-4.472656-15.96875-7.089844-32.402344-7.804687-48.96875 0-43.695312 14.039062-74.214844 34.132812-74.214844 7.878907-.359374 15.734375 1.0625 22.984375 4.164063 12.550782 5.484375 26.816406 5.484375 39.367188 0 7.25-3.101563 15.105468-4.523437 22.984375-4.164063 20.09375 0 34.132812 30.519532 34.132812 74.214844 0 10.355469-.375 19.917969-.738281 29.164063-.097656 2.554687-.191406 5.035156-.28125 7.515625l-.003906.039062.003906.027344c-.832031 23.390625-.769531 43.636719 7.425781 63.199219-26.375-16.042969-31.839843-49.820313-32.101562-51.542969-.464844-3.167969-2.667969-5.808594-5.699219-6.835938-3.03125-1.03125-6.386719-.273437-8.683594 1.953126-4.390625 4.261718-10.554687 18.4375-2.464844 65.5zm-46.019531-402.238282c7.339844-3.792968 16.058594-3.8125 23.414063-.058594l58.476562 31.332032h-140.257812zm-153.925781 82.472656h123.019531c4.714844 0 8.535157-3.820312 8.535157-8.535156 0-4.710937-3.820313-8.53125-8.535157-8.53125h-91.167969l31.855469-17.066406h203.960938l31.851562 17.066406h-133.832031c-4.710938 0-8.535156 3.820313-8.535156 8.53125 0 4.714844 3.824218 8.535156 8.535156 8.535156h165.6875l47.777344 25.597657h-426.933594zm46.222656 145.066407v-102.398438h238.929688v102.398438c-.105469 18.644531-10.308594 35.769531-26.660156 44.734375-4.480469-43.34375-23.15625-70.335938-50.136719-70.335938-10.027344-.359375-20.015625 1.472656-29.265625 5.363282-8.511719 3.882812-18.292969 3.882812-26.804688 0-9.25-3.890626-19.234375-5.722657-29.265625-5.363282-26.980469 0-45.652343 26.992188-50.136719 70.335938-16.347656-8.964844-26.554687-26.089844-26.660156-44.734375zm-115.792968 218.027343 7.941406-32.183593c7.90625-28.894531 34.101562-48.980469 64.058594-49.113281l-22.894532 110.734374h-52.777344c.0625-9.921874 1.292969-19.804687 3.671876-29.4375zm66.535156 29.4375 26.828125-129.773437c.632812-3.25 5.574219-6.757813 12.445312-6.757813h42.070313c.597656 2.558594 1.183594 5.136719 1.789062 7.675782 7.046875 29.566406 13.128906 55.097656-5.683594 73.339844-2.507812 2.398437-3.296874 6.085937-1.984374 9.300781 1.308593 3.214843 4.453124 5.300781 7.925781 5.257812v40.957031zm100.457031-49.917968c15.832031-11.152344 28.941406-25.738282 38.347656-42.667969 3.363281 20.398437 11.28125 39.777344 23.167969 56.691406 17.71875 22.914063 22.25 28.78125 23.410156 35.898438h-84.925781zm108.789063 49.917968c11.4375-23.464843 15.132812-49.957031 10.550781-75.65625-1.160157-6.773437-1.988281-12.699218-2.558594-17.882812 5.25 8.394531 11.9375 15.804688 19.75 21.886719v71.652343zm113.078124 0h-68.269531v-61.929687c5.054688 2.054687 10.320313 3.535156 15.703125 4.417969 3.457032.5625 6.910156-1.050782 8.699219-4.0625 1.789063-3.011719 1.558594-6.8125-.585937-9.582032-15.300782-19.789062-17.09375-39.898437-16.519532-65.375h36.820313c5.21875-.621093 10.253906 2.125 12.554687 6.847657l26.730469 129.683593zm32.550782 0-22.816406-110.730468c29.929687.167968 56.089843 20.246094 63.992187 49.117187l7.9375 32.175781c2.371094 9.636719 3.605469 19.515626 3.667969 29.4375zm0 0"/>
	<path d="m196.265625 179.183594h8.535156v17.066406c0 4.710938 3.820313 8.53125 8.53125 8.53125 4.714844 0 8.535157-3.820312 8.535157-8.53125v-17.066406h8.53125c4.714843 0 8.535156-3.820313 8.535156-8.535156 0-4.710938-3.820313-8.53125-8.535156-8.53125h-34.132813c-4.710937 0-8.53125 3.820312-8.53125 8.53125 0 4.714843 3.820313 8.535156 8.53125 8.535156zm0 0"/>
	<path d="m281.601562 179.183594h8.53125v17.066406c0 4.710938 3.820313 8.53125 8.535157 8.53125 4.710937 0 8.53125-3.820312 8.53125-8.53125v-17.066406h8.535156c4.710937 0 8.53125-3.820313 8.53125-8.535156 0-4.710938-3.820313-8.53125-8.53125-8.53125h-34.132813c-4.714843 0-8.535156 3.820312-8.535156 8.53125 0 4.714843 3.820313 8.535156 8.535156 8.535156zm0 0"/>
</svg>